<?xml version="1.0" encoding="UTF-8"?>
<svg id="Layer_1" xmlns="http://www.w3.org/2000/svg" version="1.1" viewBox="0 0 256 256">
  <!-- Generator: Adobe Illustrator 30.3.0, SVG Export Plug-In . SVG Version: 2.1.3 Build 182)  -->
  <defs>
    <style>
      .st0 {
        fill: #00d3fe;
      }

      .st1 {
        fill: #0c1020;
      }
    </style>
  </defs>
  <rect class="st1" x=".05" y=".37" width="255.95" height="255.95"/>
  <path class="st0" d="M128.02,63.7c-21.22,0-61.93-.22-80.97,21.76-6.22,7.18-10.13,16.74-10.29,29.45,0,41.82,42.04,49.48,72.8,50.89v27.2h36.9v-27.2c21.46-.96,48.21-4.94,62.57-21.29,6.32-7.2,10.24-16.8,10.24-29.6.05-51.47-65.17-51.2-91.26-51.2ZM159.42,134.33c-10.72,2.78-23.43,2.78-31.39,2.78-15.68,0-50.83.01-50.83-22.2.17-11.02,8.71-16.57,19.2-19.36,10.8-2.88,23.68-2.84,31.63-2.84,14.53,0,50.86-.12,50.83,22.2,0,11.1-8.72,16.65-19.44,19.43Z"/>
</svg>