<?xml version="1.0" encoding="UTF-8"?>
<svg id="Layer_1" xmlns="http://www.w3.org/2000/svg" version="1.1" viewBox="0 0 1080 1080">
  <!-- Generator: Adobe Illustrator 30.3.0, SVG Export Plug-In . SVG Version: 2.1.3 Build 182)  -->
  <defs>
    <style>
      .st0 {
        fill: #00d3fe;
      }

      .st1 {
        fill: #0c1020;
      }
    </style>
  </defs>
  <rect class="st1" width="1080" height="1080"/>
  <path class="st0" d="M539.99,267.23c-89.55,0-261.32-.91-341.65,91.8-26.26,30.31-42.75,70.62-43.4,124.25,0,176.46,177.39,208.79,307.2,214.72v114.78h155.71v-114.77c90.55-4.06,203.44-20.83,264.01-89.83,26.67-30.38,43.19-70.89,43.19-124.9.22-217.17-274.97-216.05-385.06-216.05ZM672.46,565.25c-45.22,11.71-98.85,11.71-132.46,11.71-66.18,0-214.47.05-214.47-93.68.73-46.5,36.74-69.92,81-81.71,45.57-12.15,99.9-11.97,133.47-11.97,61.32,0,214.6-.49,214.47,93.68,0,46.83-36.8,70.25-82.01,81.97Z"/>
</svg>